PathFileType	4	(X/Y/Z)	D:\Long Term Storage\D'Arcy Smith\Coord9.trc
DataRate	CameraRate	NumFrames	NumMarkers	Units	OrigDataRate	OrigDataStartFrame	OrigNumFrames
120.00	120.00	      85	4	mm	120.00	4203	      4803
Frame#	Time	M1			M2			M3			M4			
		X1	Y1	Z1	X2	Y2	Z2	X3	Y3	Z3	X4	Y4	Z4	

4203	35.017	1044.09216	334.10159	501.87912	1639.72192	342.35831	403.96341							
4204	35.025	1046.41162	336.70749	486.59396	1645.14563	338.15344	417.30035							
4205	35.033	1048.74109	339.24048	472.02798	1650.57031	333.84766	431.44183							
4206	35.042	1050.94080	343.49652	456.99387	1655.43750	330.40921	446.30734							
4207	35.050	1053.61194	347.76028	443.45389	1660.19397	327.40112	462.06622							
4208	35.058	1055.90564	352.61694	429.52100	1664.53760	325.37057	478.75922							
4209	35.067	1058.24365	358.06879	416.62152	1668.59448	324.70816	495.94577							
4210	35.075	1060.56067	363.70203	404.75134	1672.08350	325.35687	513.33038							
4211	35.083	1062.66040	369.91977	393.56689	1674.53589	327.52515	530.53052							
4212	35.092	1064.65076	375.91742	383.06738	1676.89429	330.60031	547.06250							
4213	35.100	1066.44910	381.97092	373.35461	1678.23718	335.07874	562.57117							
4214	35.108	1068.33423	388.06958	364.42484	1678.91711	340.33099	576.94623							
4215	35.117	1070.02539	393.74707	355.87531	1678.88904	346.04294	589.73041							
4216	35.125	1071.66541	399.29956	348.11929	1678.54639	351.84796	600.90460							
4217	35.133	1073.29419	404.41132	340.85620	1677.51965	358.09921	610.36993							
4218	35.142	1074.91821	408.88681	334.30414	1676.25867	363.42078	618.70416							
4219	35.150	1076.28748	412.95090	327.86859	1674.95605	368.09341	624.90015							
4220	35.158	1077.75891	416.51724	322.28485	1673.10535	372.20264	629.46881							
4221	35.167	1078.92822	419.27975	317.06390	1671.02551	375.45590	632.23627							
4222	35.175	1080.20459	421.27444	312.09192	1668.73975	377.76517	633.52441							
4223	35.183	1081.24072	422.54034	307.88077	1666.21252	379.38651	632.97778							
4224	35.192	1082.15747	423.08160	304.31815	1663.74146	379.27313	630.76166							
4225	35.200	1082.74548	422.63342	301.44611	1661.09949	378.59735	626.92102							
4226	35.208	1083.09180	421.27591	298.98270	1658.21423	376.97473	621.43622							
4227	35.217	1083.51794	418.94846	297.65469	1655.29895	374.58994	614.30072							
4228	35.225	1083.59900	415.67401	297.07660	1652.14185	371.80014	605.64136							
4229	35.233	1083.52527	411.56174	297.60751	1648.83289	368.77258	595.64124							
4230	35.242	1083.33374	406.34186	299.15839	1645.49609	364.99500	584.17194							
4231	35.250	1083.09399	400.22580	302.28790	1641.89111	361.60999	571.56195							
4232	35.258	1082.79663	392.82660	306.91269	1638.55212	357.94916	557.72089							
4233	35.267	1081.99951	384.96408	312.87863	1635.06165	354.68454	542.93573							
4234	35.275	1081.02466	376.61127	320.36307	1631.50098	351.72943	527.21973							
4235	35.283	1080.47632	367.23260	329.52524	1627.95129	349.46805	510.56961							
4236	35.292	1078.47815	358.25644	340.33295	1624.41809	347.72549	493.22931							
4237	35.300	1076.97876	349.19107	353.08243	1620.59766	346.68365	475.76474							
4238	35.308	1075.58545	340.32758	367.79129	1616.85779	346.47104	457.73303							
4239	35.317	1073.67334	332.43372	384.14587	1613.88562	346.59970	439.83539							
4240	35.325	1070.82214	325.98141	398.47009	1610.54126	347.85934	421.94080							
4241	35.333	1068.32849	319.59900	416.13126	1607.55762	349.53625	404.83661							
4242	35.342	1065.56104	314.91412	433.77927	1604.96875	351.78915	388.91022							
4243	35.350	1063.00647	312.53976	452.52383	1602.84851	354.38098	374.56219							
4244	35.358	1059.49719	310.25461	470.17535	1601.19336	357.17014	362.01660							
4245	35.367	1056.27466	309.94916	487.94525	1600.02039	359.95663	351.35715							
4246	35.375	1053.21143	311.04102	504.98206	1599.53406	362.62225	342.54160							
4247	35.383	1049.91211	313.17068	520.29163	1599.39734	364.92032	335.80804							
4248	35.392	1047.55676	316.26312	535.32861	1600.05359	366.62985	330.94061							
4249	35.400	1044.29590	319.36664	547.21716	1601.15808	367.58749	328.20801							
4250	35.408	1041.49097	322.88120	556.81561	1602.99658	367.76364	327.27081							
4251	35.417	1039.24976	326.24133	564.21008	1605.37732	367.10526	328.15555							
4252	35.425	1036.98853	328.98502	568.94336	1608.06311	365.67224	330.67999							
4253	35.433	1035.61292	331.21259	570.91315	1611.50635	363.65695	334.47443							
4254	35.442	1034.52881	332.65317	570.16534	1615.22473	360.72116	339.76657							
4255	35.450	1033.80591	333.44016	566.73309	1619.43579	357.38406	346.33694							
4256	35.458	1033.29773	333.81860	560.86377	1623.77893	353.68204	354.23260							
4257	35.467	1033.56958	334.00583	553.12628	1628.54016	349.31482	363.32629							
4258	35.475	1034.21118	334.19321	543.87628	1633.27930	344.92957	373.66922							
4259	35.483	1035.03528	334.75879	533.19525	1638.37915	340.54355	385.34222							
4260	35.492	1036.41089	335.50241	521.37506	1643.54834	336.43088	398.42316							
4261	35.500	1037.96948	336.89999	508.85242	1648.80310	332.49203	413.04230							
4262	35.508	1039.46301	339.17139	494.85397	1654.06702	329.22113	428.97910							
4263	35.517	1041.24915	341.91428	481.19778	1658.96875	326.87222	446.09818							
4264	35.525	1043.75037	344.93649	468.17221	1663.94263	325.59052	464.18552							
4265	35.533	1046.64771	348.49536	454.65747	1668.46851	325.49503	482.83969							
4266	35.542	1049.21631	352.25714	441.50128	1672.52112	326.79312	501.57083							
4267	35.550	1051.58386	357.10358	428.05176	1675.84387	329.82010	520.20227							
4268	35.558	1054.36511	361.82004	415.00446	1678.93896	333.32925	537.91418							
4269	35.567	1056.91162	367.20279	402.16528	1681.06323	338.08936	554.83136							
4270	35.575	1059.51550	372.71124	389.90015	1682.84412	343.78967	570.63391							
4271	35.583	1061.86560	378.42987	378.09500	1683.91235	349.90329	584.91913							
4272	35.592	1064.36267	384.23376	366.61847	1684.41211	356.49805	597.82751							
4273	35.600	1066.62988	389.83026	355.86670	1684.60315	362.43991	608.84784							
4274	35.608	1068.78723	395.34103	345.62085	1684.33679	368.26117	618.03979							
4275	35.617	1071.18250	400.44620	335.60083	1683.42627	373.91531	625.62640							
4276	35.625	1073.11865	405.34464	326.64545	1682.58301	378.09982	630.93158							
4277	35.633	1074.96191	409.79590	318.09363	1681.07861	381.52966	634.55249							
4278	35.642	1076.76111	413.73752	310.20639	1679.52783	384.16504	636.19873							
4279	35.650	1078.30579	417.15460	302.95200	1677.71289	385.13315	635.79535							
4280	35.658	1079.63098	419.86896	296.70715	1675.75183	385.17429	633.69446							
4281	35.667	1080.64307	421.60327	291.20248	1673.53174	384.13901	629.71387							
4282	35.675	1081.63135	422.57684	286.69128	1670.99060	382.47287	623.98511							
4283	35.683	1082.18640	422.44427	283.54254	1668.42664	379.53085	616.56616							
4284	35.692	1082.47693	420.95779	281.69980	1665.46362	376.37207	607.60608							
4285	35.700	1082.42322	418.91248	281.15793	1662.41724	372.78357	597.19897							
4286	35.708	1081.74561	415.10559	282.16650	1659.10608	369.14435	585.41382							
4287	35.717	1080.70483	410.06787	285.15521	1655.78113	365.39551	572.42328							
